<svg width="65" height="62" viewBox="0 0 65 62" fill="none" xmlns="http://www.w3.org/2000/svg">
<g clip-path="url(#clip0_55_785)">
<path d="M16.0013 4.69991C11.6443 6.64037 7.47175 9.17401 4.628 12.6372C1.17484 16.8423 -0.126495 22.4763 0.00958801 27.9013C0.145671 33.3263 1.59884 38.6257 3.13634 43.8332C4.3915 48.0848 5.81025 52.4916 8.92559 55.6627C12.6058 59.4083 18.0527 60.8138 23.2759 61.5036C29.229 62.2896 35.4735 62.3197 41.0197 60.0319C42.8527 59.2762 44.5822 58.2778 46.453 57.621C50.1217 56.3332 54.2617 56.3814 57.6423 54.4672C61.2988 52.3965 63.4221 48.331 64.2602 44.2339C65.0985 40.1368 64.8453 35.9103 64.8732 31.7298C64.9082 26.4793 65.4023 20.838 63.3003 15.8748C61.4152 11.4235 56.9561 8.92883 54.7308 4.71167C52.7242 0.909137 45.6016 0.512801 40.9419 0.315212C33.2648 -0.0107639 31.162 -0.608497 23.8575 1.75479C21.3402 2.56915 18.637 3.52589 16.0013 4.69991Z" fill="#1A2E66"/>
</g>
<defs>
<clipPath id="clip0_55_785">
<rect width="65" height="62" fill="white"/>
</clipPath>
</defs>
</svg>
