<svg width="55" height="64" viewBox="0 0 55 64" fill="none" xmlns="http://www.w3.org/2000/svg">
<g clip-path="url(#clip0_55_783)">
<path d="M12.7099 0.100011C12.0987 0.00811659 11.4575 -0.0813054 10.8758 0.1285C10.3347 0.323467 9.70823 0.640401 9.54018 1.19306C7.02828 9.45024 5.53325 13.9177 4.38081 22.8219C3.72327 27.9043 2.10269 32.863 1.94851 37.986C1.84441 41.4388 -0.475525 52.7954 0.0881516 56.2027C0.348491 57.773 0.655567 59.4426 1.7415 60.6008C3.16943 62.1237 5.47668 62.3018 7.55674 62.3813C22.8031 62.9628 33.5038 63.3709 48.7506 63.9525C51.1829 64.0188 53.6278 14.5034 54.5765 8.61191C54.8438 6.95177 55.4739 3.99204 54.1075 2.43161C53.033 1.14647 49.0056 1.27803 47.3706 1.03152C35.925 -0.692124 24.1551 1.82366 12.7099 0.100011Z" fill="#1A2E66"/>
</g>
<defs>
<clipPath id="clip0_55_783">
<rect width="55" height="64" fill="white"/>
</clipPath>
</defs>
</svg>
