<svg width="32" height="67" viewBox="0 0 32 67" fill="none" xmlns="http://www.w3.org/2000/svg">
<g clip-path="url(#clip0_55_787)">
<path d="M27.7349 59.0781C30.9656 55.9724 31.1327 50.8631 31.0758 46.3242C28.2205 49.8334 24.8802 52.9279 21.1861 55.4862C20.76 52.0823 22.2866 48.7264 24.214 45.9199C26.1415 43.1135 28.5101 40.6177 30.1517 37.6263C31.793 34.6349 32.6308 30.893 31.2328 27.7747C29.9104 28.9474 29.1589 30.635 28.346 32.2215C26.0846 36.6355 23.0659 40.6408 19.4701 43.9988C19.562 41.2721 20.1807 38.5966 20.7966 35.9422C21.0858 34.6953 21.3781 33.4388 21.901 32.2746C22.5129 30.9115 23.4216 29.7157 24.2557 28.4825C28.2876 22.5212 30.6818 15.41 31.0944 8.1691C31.1313 7.52275 30.893 6.61625 30.2685 6.71527C29.9047 6.77299 29.7061 7.17003 29.5589 7.51573C26.8102 13.9757 21.9626 19.3132 19.1961 25.7652C17.8525 21.4494 19.9411 16.8745 22.0091 12.8706C24.077 8.86674 26.2465 4.36357 25.0593 0C20.7505 4.28091 17.2306 9.39263 14.7397 14.9875C15.0884 13.2293 15.1591 11.2252 14.0592 9.82909C13.3624 8.94489 12.3101 8.45604 11.3946 7.81478C9.73963 6.65542 8.4783 4.91786 7.87062 2.9605C7.19686 5.78977 6.5522 8.91158 7.85383 11.5003C8.46208 12.7098 9.44075 13.6711 10.2939 14.7137C12.1608 16.9946 13.4695 19.7513 14.0689 22.6646C10.6999 21.4134 9.70241 16.6877 6.47676 15.0892C6.46155 16.149 6.4469 17.2144 6.59697 18.2631C7.10306 21.8005 9.38914 24.7454 11.1775 27.8154C13.3504 31.545 14.8642 35.6764 15.6244 39.9498C13.458 38.944 11.1586 37.8198 9.94867 35.7218C9.4659 34.8851 9.1906 33.944 8.89613 33.0203C8.11109 30.5604 7.01611 27.9787 4.83118 26.6808C4.72506 30.9421 5.68827 35.2268 7.60286 39.0114C10.0427 43.834 14.0482 48.0188 14.8519 53.3882C12.3222 52.2458 10.433 50.0401 8.43694 48.0803C6.08648 45.7723 3.25237 43.6404 0 43.4971C0.841682 45.7745 1.68355 48.0518 2.52523 50.3292C2.9721 51.5379 3.42714 52.7625 4.1671 53.8091C4.9881 54.9703 6.11816 55.8545 7.16278 56.8083C9.2199 58.6859 10.9939 60.8884 12.4032 63.3139C12.9386 64.2357 13.4413 65.2136 14.2491 65.8959C16.1802 67.5267 19.9012 67.1984 21.8164 65.6334C22.7416 64.8778 23.2993 63.6334 23.9859 62.6753C25.0502 61.1906 26.4451 60.3182 27.7349 59.0781Z" fill="#1A2E66"/>
</g>
<defs>
<clipPath id="clip0_55_787">
<rect width="32" height="67" fill="white"/>
</clipPath>
</defs>
</svg>
