<svg width="75" height="28" viewBox="0 0 75 28" fill="none" xmlns="http://www.w3.org/2000/svg">
<g clip-path="url(#clip0_69_83)">
<path d="M32.6761 18.4959C32.2359 18.9057 31.5845 18.8093 30.1232 18.7972C29.9589 18.7972 29.1843 18.7852 28.7265 18.7972C27.3709 18.8274 25.5164 18.7671 23.838 18.7972C23.7735 18.7972 23.7148 18.8575 23.7207 18.9238C23.7559 20.2436 23.2512 23.1003 25.5399 23.2751C27.6585 23.4318 26.9484 20.6595 28.1338 20.2798C28.6268 20.1231 30.98 20.1352 31.5786 20.2075C32.277 20.2858 32.7876 20.6294 32.8815 21.3827C33.8439 29.121 19.7946 30.2419 17.3768 23.8175C16.5669 21.672 16.696 15.0486 17.007 12.6319C17.858 5.99053 29.7535 5.55661 32.2418 10.9143C32.9871 12.5235 32.8052 15.6935 32.8815 17.4834C32.8815 17.616 32.8932 18.297 32.6702 18.5019L32.6761 18.4959ZM27.1362 15.7116C27.189 15.7116 27.23 15.6694 27.2359 15.6212C27.3415 14.3435 27.1948 12.8851 25.6279 12.879C23.8556 12.873 23.9847 14.1989 23.8263 15.585C23.8204 15.6453 23.8615 15.6995 23.9202 15.6995L27.1362 15.7116Z" fill="#233263"/>
<path d="M43.4156 7.70211H43.4097C41.4196 7.70211 39.8064 9.35883 39.8064 11.4025V24.2936C39.8064 26.3373 41.4196 27.994 43.4097 27.994H43.4156C45.4056 27.994 47.0188 26.3373 47.0188 24.2936V11.4025C47.0188 9.35883 45.4056 7.70211 43.4156 7.70211Z" fill="#233263"/>
<path d="M58.128 0H58.1221C56.132 0 54.5188 1.65672 54.5188 3.70039V24.2936C54.5188 26.3373 56.132 27.994 58.1221 27.994H58.128C60.118 27.994 61.7312 26.3373 61.7312 24.2936V3.70039C61.7312 1.65672 60.118 0 58.128 0Z" fill="#233263"/>
<path d="M43.486 6.66552C45.2784 6.66552 46.7313 5.17339 46.7313 3.33276C46.7313 1.49213 45.2784 0 43.486 0C41.6937 0 40.2407 1.49213 40.2407 3.33276C40.2407 5.17339 41.6937 6.66552 43.486 6.66552Z" fill="#233263"/>
<path d="M71.7546 27.994C73.5469 27.994 74.9999 26.5018 74.9999 24.6612C74.9999 22.8206 73.5469 21.3285 71.7546 21.3285C69.9622 21.3285 68.5093 22.8206 68.5093 24.6612C68.5093 26.5018 69.9622 27.994 71.7546 27.994Z" fill="#233263"/>
<path d="M11.1033 11.3543V10.1248C11.1033 8.87129 10.0998 7.85278 8.8615 7.85278H7.20657V3.29057C7.20657 1.47654 5.73944 0 3.93779 0H3.26878C1.46714 0 0 1.47051 0 3.29057V12.9092C0 13.0598 0.0117371 13.2105 0.0293427 13.3612C0.0117371 13.5118 0 13.6625 0 13.8132V24.5588C0.0176056 27.1683 1.74296 28.0904 4.04343 28C4.98239 28 6.23239 28 7.15962 27.9819C8.82629 27.9518 10.4871 27.2708 10.4343 25.4387C10.358 22.799 10.0352 22.2988 7.80516 22.2264H7.56455C7.50587 22.2264 7.31808 22.2264 7.21244 22.2264V13.8071C7.21244 13.7529 7.21244 13.6987 7.21244 13.6384H8.87324C10.1115 13.6384 11.115 12.6199 11.115 11.3663L11.1033 11.3543Z" fill="#233263"/>
</g>
<defs>
<clipPath id="clip0_69_83">
<rect width="75" height="28" fill="white"/>
</clipPath>
</defs>
</svg>
